{"asset":{"generator":"Khronos glTF Blender I/O v4.1.62","version":"2.0"},"materials":[{"doubleSided":true,"name":"modular_urban_apartments_facade_objects","normalTexture":{"index":0},"pbrMetallicRoughness":{"baseColorTexture":{"index":1},"metallicRoughnessTexture":{"index":2}}},{"alphaMode":"BLEND","doubleSided":true,"name":"modular_urban_apartments_facade_glass","normalTexture":{"index":3},"pbrMetallicRoughness":{"baseColorTexture":{"index":4},"metallicRoughnessTexture":{"index":5}}},{"doubleSided":true,"name":"modular_urban_apartments_facade_trim_01","normalTexture":{"index":6},"pbrMetallicRoughness":{"baseColorTexture":{"index":7},"metallicFactor":0,"metallicRoughnessTexture":{"index":8}}},{"doubleSided":true,"name":"modular_urban_apartments_facade_trim_02","normalTexture":{"index":9},"pbrMetallicRoughness":{"baseColorTexture":{"index":10},"metallicFactor":0,"metallicRoughnessTexture":{"index":11}}},{"doubleSided":true,"name":"modular_urban_apartments_facade_plaster","normalTexture":{"index":12},"pbrMetallicRoughness":{"baseColorTexture":{"index":13},"metallicFactor":0,"metallicRoughnessTexture":{"index":14}}}],"textures":[{"sampler":0,"extensions":{"EXT_texture_webp":{"source":0}}},{"sampler":0,"extensions":{"EXT_texture_webp":{"source":1}}},{"sampler":0,"extensions":{"EXT_texture_webp":{"source":2}}},{"sampler":0,"extensions":{"EXT_texture_webp":{"source":0}}},{"sampler":0,"extensions":{"EXT_texture_webp":{"source":1}}},{"sampler":0,"extensions":{"EXT_texture_webp":{"source":2}}},{"sampler":0,"extensions":{"EXT_texture_webp":{"source":3}}},{"sampler":0,"extensions":{"EXT_texture_webp":{"source":4}}},{"sampler":0,"extensions":{"EXT_texture_webp":{"source":5}}},{"sampler":0,"extensions":{"EXT_texture_webp":{"source":6}}},{"sampler":0,"extensions":{"EXT_texture_webp":{"source":7}}},{"sampler":0,"extensions":{"EXT_texture_webp":{"source":8}}},{"sampler":0,"extensions":{"EXT_texture_webp":{"source":9}}},{"sampler":0,"extensions":{"EXT_texture_webp":{"source":10}}},{"sampler":0,"extensions":{"EXT_texture_webp":{"source":11}}}],"images":[{"mimeType":"image/webp","name":"modular_urban_apartments_facade_objects_nor_gl","uri":"textures/modular_urban_apartments_facade_objects_nor_gl_1k.webp"},{"mimeType":"image/webp","name":"modular_urban_apartments_facade_objects_diff-modular_urban_apartments_facade_objects_alpha","uri":"textures/modular_urban_apartments_facade_objects_diff_1k.webp"},{"mimeType":"image/webp","name":"modular_urban_apartments_facade_objects_metal-modular_urban_apartments_facade_objects_rough","uri":"textures/modular_urban_apartments_facade_objects_arm_1k.webp"},{"mimeType":"image/webp","name":"modular_urban_apartments_facade_trim_01_nor_gl","uri":"textures/modular_urban_apartments_facade_trim_01_nor_gl_1k.webp"},{"mimeType":"image/webp","name":"modular_urban_apartments_facade_trim_01_diff","uri":"textures/modular_urban_apartments_facade_trim_01_diff_1k.webp"},{"mimeType":"image/webp","name":"modular_urban_apartments_facade_trim_01_rough","uri":"textures/modular_urban_apartments_facade_trim_01_arm_1k.webp"},{"mimeType":"image/webp","name":"modular_urban_apartments_facade_trim_02_nor_gl","uri":"textures/modular_urban_apartments_facade_trim_02_nor_gl_1k.webp"},{"mimeType":"image/webp","name":"modular_urban_apartments_facade_trim_02_diff","uri":"textures/modular_urban_apartments_facade_trim_02_diff_1k.webp"},{"mimeType":"image/webp","name":"modular_urban_apartments_facade_trim_02_rough","uri":"textures/modular_urban_apartments_facade_trim_02_arm_1k.webp"},{"mimeType":"image/webp","name":"modular_urban_apartments_facade_plaster_nor_gl","uri":"textures/modular_urban_apartments_facade_plaster_nor_gl_1k.webp"},{"mimeType":"image/webp","name":"modular_urban_apartments_facade_plaster_diff","uri":"textures/modular_urban_apartments_facade_plaster_diff_1k.webp"},{"mimeType":"image/webp","name":"modular_urban_apartments_facade_plaster_rough","uri":"textures/modular_urban_apartments_facade_plaster_arm_1k.webp"}],"samplers":[{"magFilter":9729,"minFilter":9987}],"nodes":[{"mesh":0,"name":"door_centered_large_01","translation":[0,0,0]},{"mesh":1,"name":"cornice_standard_standard_01","translation":[0,0,0]},{"mesh":2,"name":"crown_standard_standard_01","translation":[0,0,0]},{"mesh":3,"name":"dado_standard_standard_01","translation":[0,0,0]},{"mesh":4,"name":"wall_door_centered_large_01","translation":[0,0,0]},{"mesh":5,"name":"wall_window_centered_large_01","translation":[0,0,0]},{"mesh":6,"name":"wall_window_centered_large_02","translation":[0,0,0]},{"mesh":7,"name":"wall_standard_standard_01","translation":[0,0,0]},{"mesh":8,"name":"base_standard_01","translation":[0,0,0]},{"mesh":9,"name":"window_centered_large_02","translation":[0,0,0]},{"mesh":10,"name":"window_centered_large_01","translation":[0,0,0]}],"meshes":[{"name":"Cube.170","primitives":[{"attributes":{"POSITION":0,"NORMAL":1,"TEXCOORD_0":2},"indices":3,"material":0},{"attributes":{"POSITION":4,"NORMAL":5,"TEXCOORD_0":6},"indices":7,"material":1}]},{"name":"Cube.293","primitives":[{"attributes":{"POSITION":8,"NORMAL":9,"TEXCOORD_0":10},"indices":11,"material":2}]},{"name":"Cube.029","primitives":[{"attributes":{"POSITION":12,"NORMAL":13,"TEXCOORD_0":14},"indices":15,"material":3}]},{"name":"Cube.296","primitives":[{"attributes":{"POSITION":16,"NORMAL":17,"TEXCOORD_0":18},"indices":19,"material":2}]},{"name":"Mesh","primitives":[{"attributes":{"POSITION":20,"NORMAL":21,"TEXCOORD_0":22},"indices":23,"material":4}]},{"name":"Mesh","primitives":[{"attributes":{"POSITION":24,"NORMAL":25,"TEXCOORD_0":26},"indices":27,"material":4}]},{"name":"Mesh","primitives":[{"attributes":{"POSITION":28,"NORMAL":29,"TEXCOORD_0":30},"indices":31,"material":4}]},{"name":"Mesh","primitives":[{"attributes":{"POSITION":32,"NORMAL":33,"TEXCOORD_0":34},"indices":35,"material":4}]},{"name":"Cube.290","primitives":[{"attributes":{"POSITION":36,"NORMAL":37,"TEXCOORD_0":38},"indices":39,"material":2}]},{"name":"Cube.132","primitives":[{"attributes":{"POSITION":40,"NORMAL":41,"TEXCOORD_0":42},"indices":43,"material":0},{"attributes":{"POSITION":44,"NORMAL":45,"TEXCOORD_0":46},"indices":47,"material":1}]},{"name":"Cube.221","primitives":[{"attributes":{"POSITION":48,"NORMAL":49,"TEXCOORD_0":50},"indices":51,"material":0},{"attributes":{"POSITION":52,"NORMAL":53,"TEXCOORD_0":54},"indices":47,"material":1}]}],"accessors":[{"bufferView":0,"componentType":5126,"count":2239,"max":[-0.4599951505661011,2.809999704360962,0.20000004768371582],"min":[-2.5400009155273438,0,-0.24000000953674316],"type":"VEC3"},{"bufferView":1,"componentType":5126,"count":2239,"type":"VEC3"},{"bufferView":2,"componentType":5126,"count":2239,"type":"VEC2"},{"bufferView":3,"componentType":5123,"count":5097,"type":"SCALAR"},{"bufferView":4,"componentType":5126,"count":24,"max":[-0.7770693302154541,2.312929630279541,-0.14500021934509277],"min":[-2.2229268550872803,2.1965720653533936,-0.14500021934509277],"type":"VEC3"},{"bufferView":5,"componentType":5126,"count":24,"type":"VEC3"},{"bufferView":6,"componentType":5126,"count":24,"type":"VEC2"},{"bufferView":7,"componentType":5123,"count":36,"type":"SCALAR"},{"bufferView":8,"componentType":5126,"count":30,"max":[0,0.19999949634075165,0.03999999910593033],"min":[-3,-4.76837158203125e-7,0],"type":"VEC3"},{"bufferView":9,"componentType":5126,"count":30,"type":"VEC3"},{"bufferView":10,"componentType":5126,"count":30,"type":"VEC2"},{"bufferView":11,"componentType":5123,"count":54,"type":"SCALAR"},{"bufferView":12,"componentType":5126,"count":1003,"max":[-2.384185791015625e-7,0.75,0.33000001311302185],"min":[-3.000001907348633,0,-0.09999996423721313],"type":"VEC3"},{"bufferView":13,"componentType":5126,"count":1003,"type":"VEC3"},{"bufferView":14,"componentType":5126,"count":1003,"type":"VEC2"},{"bufferView":15,"componentType":5123,"count":2052,"type":"SCALAR"},{"bufferView":16,"componentType":5126,"count":16,"max":[0,0.5,0.040000032633543015],"min":[-3,2.011675803714752e-8,0],"type":"VEC3"},{"bufferView":17,"componentType":5126,"count":16,"type":"VEC3"},{"bufferView":18,"componentType":5126,"count":16,"type":"VEC2"},{"bufferView":19,"componentType":5123,"count":24,"type":"SCALAR"},{"bufferView":20,"componentType":5126,"count":1275,"max":[8.344651405423065e-7,3.000000476837158,4.3711395392165286e-8],"min":[-2.99999737739563,0,4.371138828673793e-8],"type":"VEC3"},{"bufferView":21,"componentType":5126,"count":1275,"type":"VEC3"},{"bufferView":22,"componentType":5126,"count":1275,"type":"VEC2"},{"bufferView":23,"componentType":5123,"count":6768,"type":"SCALAR"},{"bufferView":24,"componentType":5126,"count":1647,"max":[0,3.000000476837158,0],"min":[-3.000000476837158,0,0],"type":"VEC3"},{"bufferView":25,"componentType":5126,"count":1647,"type":"VEC3"},{"bufferView":26,"componentType":5126,"count":1647,"type":"VEC2"},{"bufferView":27,"componentType":5123,"count":8832,"type":"SCALAR"},{"bufferView":28,"componentType":5126,"count":1636,"max":[0,3.000000476837158,0],"min":[-3.000000476837158,0,0],"type":"VEC3"},{"bufferView":29,"componentType":5126,"count":1636,"type":"VEC3"},{"bufferView":30,"componentType":5126,"count":1636,"type":"VEC2"},{"bufferView":31,"componentType":5123,"count":8832,"type":"SCALAR"},{"bufferView":32,"componentType":5126,"count":2401,"max":[0,3.000000476837158,0],"min":[-3.000000476837158,0,0],"type":"VEC3"},{"bufferView":33,"componentType":5126,"count":2401,"type":"VEC3"},{"bufferView":34,"componentType":5126,"count":2401,"type":"VEC2"},{"bufferView":35,"componentType":5123,"count":13824,"type":"SCALAR"},{"bufferView":36,"componentType":5126,"count":10,"max":[0,0.75,0.20000000298023224],"min":[-3,0,0],"type":"VEC3"},{"bufferView":37,"componentType":5126,"count":10,"type":"VEC3"},{"bufferView":38,"componentType":5126,"count":10,"type":"VEC2"},{"bufferView":39,"componentType":5123,"count":24,"type":"SCALAR"},{"bufferView":40,"componentType":5126,"count":1835,"max":[-0.4399905204772949,2.299999475479126,0.1500074714422226],"min":[-2.560009479522705,0.29999980330467224,-0.24000000953674316],"type":"VEC3"},{"bufferView":41,"componentType":5126,"count":1835,"type":"VEC3"},{"bufferView":42,"componentType":5126,"count":1835,"type":"VEC2"},{"bufferView":43,"componentType":5123,"count":3708,"type":"SCALAR"},{"bufferView":44,"componentType":5126,"count":56,"max":[-0.6848678588867188,2.027482271194458,-0.08440019190311432],"min":[-2.314870834350586,0.5677516460418701,-0.1344001144170761],"type":"VEC3"},{"bufferView":45,"componentType":5126,"count":56,"type":"VEC3"},{"bufferView":46,"componentType":5126,"count":56,"type":"VEC2"},{"bufferView":47,"componentType":5123,"count":84,"type":"SCALAR"},{"bufferView":48,"componentType":5126,"count":2083,"max":[-0.4399905204772949,2.299999475479126,0.1500074714422226],"min":[-2.560009479522705,-3.427267074584961e-7,-0.24000000953674316],"type":"VEC3"},{"bufferView":49,"componentType":5126,"count":2083,"type":"VEC3"},{"bufferView":50,"componentType":5126,"count":2083,"type":"VEC2"},{"bufferView":51,"componentType":5123,"count":4140,"type":"SCALAR"},{"bufferView":52,"componentType":5126,"count":56,"max":[-0.6848678588867188,2.027482271194458,-0.08440019190311432],"min":[-2.314870834350586,0.5677516460418701,-0.1344001144170761],"type":"VEC3"},{"bufferView":53,"componentType":5126,"count":56,"type":"VEC3"},{"bufferView":54,"componentType":5126,"count":56,"type":"VEC2"}],"bufferViews":[{"buffer":0,"byteLength":26868,"byteOffset":0,"target":34962},{"buffer":0,"byteLength":26868,"byteOffset":26868,"target":34962},{"buffer":0,"byteLength":17912,"byteOffset":53736,"target":34962},{"buffer":0,"byteLength":10194,"byteOffset":71648,"target":34963},{"buffer":0,"byteLength":288,"byteOffset":81844,"target":34962},{"buffer":0,"byteLength":288,"byteOffset":82132,"target":34962},{"buffer":0,"byteLength":192,"byteOffset":82420,"target":34962},{"buffer":0,"byteLength":72,"byteOffset":82612,"target":34963},{"buffer":0,"byteLength":360,"byteOffset":82684,"target":34962},{"buffer":0,"byteLength":360,"byteOffset":83044,"target":34962},{"buffer":0,"byteLength":240,"byteOffset":83404,"target":34962},{"buffer":0,"byteLength":108,"byteOffset":83644,"target":34963},{"buffer":0,"byteLength":12036,"byteOffset":83752,"target":34962},{"buffer":0,"byteLength":12036,"byteOffset":95788,"target":34962},{"buffer":0,"byteLength":8024,"byteOffset":107824,"target":34962},{"buffer":0,"byteLength":4104,"byteOffset":115848,"target":34963},{"buffer":0,"byteLength":192,"byteOffset":119952,"target":34962},{"buffer":0,"byteLength":192,"byteOffset":120144,"target":34962},{"buffer":0,"byteLength":128,"byteOffset":120336,"target":34962},{"buffer":0,"byteLength":48,"byteOffset":120464,"target":34963},{"buffer":0,"byteLength":15300,"byteOffset":120512,"target":34962},{"buffer":0,"byteLength":15300,"byteOffset":135812,"target":34962},{"buffer":0,"byteLength":10200,"byteOffset":151112,"target":34962},{"buffer":0,"byteLength":13536,"byteOffset":161312,"target":34963},{"buffer":0,"byteLength":19764,"byteOffset":174848,"target":34962},{"buffer":0,"byteLength":19764,"byteOffset":194612,"target":34962},{"buffer":0,"byteLength":13176,"byteOffset":214376,"target":34962},{"buffer":0,"byteLength":17664,"byteOffset":227552,"target":34963},{"buffer":0,"byteLength":19632,"byteOffset":245216,"target":34962},{"buffer":0,"byteLength":19632,"byteOffset":264848,"target":34962},{"buffer":0,"byteLength":13088,"byteOffset":284480,"target":34962},{"buffer":0,"byteLength":17664,"byteOffset":297568,"target":34963},{"buffer":0,"byteLength":28812,"byteOffset":315232,"target":34962},{"buffer":0,"byteLength":28812,"byteOffset":344044,"target":34962},{"buffer":0,"byteLength":19208,"byteOffset":372856,"target":34962},{"buffer":0,"byteLength":27648,"byteOffset":392064,"target":34963},{"buffer":0,"byteLength":120,"byteOffset":419712,"target":34962},{"buffer":0,"byteLength":120,"byteOffset":419832,"target":34962},{"buffer":0,"byteLength":80,"byteOffset":419952,"target":34962},{"buffer":0,"byteLength":48,"byteOffset":420032,"target":34963},{"buffer":0,"byteLength":22020,"byteOffset":420080,"target":34962},{"buffer":0,"byteLength":22020,"byteOffset":442100,"target":34962},{"buffer":0,"byteLength":14680,"byteOffset":464120,"target":34962},{"buffer":0,"byteLength":7416,"byteOffset":478800,"target":34963},{"buffer":0,"byteLength":672,"byteOffset":486216,"target":34962},{"buffer":0,"byteLength":672,"byteOffset":486888,"target":34962},{"buffer":0,"byteLength":448,"byteOffset":487560,"target":34962},{"buffer":0,"byteLength":168,"byteOffset":488008,"target":34963},{"buffer":0,"byteLength":24996,"byteOffset":488176,"target":34962},{"buffer":0,"byteLength":24996,"byteOffset":513172,"target":34962},{"buffer":0,"byteLength":16664,"byteOffset":538168,"target":34962},{"buffer":0,"byteLength":8280,"byteOffset":554832,"target":34963},{"buffer":0,"byteLength":672,"byteOffset":563112,"target":34962},{"buffer":0,"byteLength":672,"byteOffset":563784,"target":34962},{"buffer":0,"byteLength":448,"byteOffset":564456,"target":34962}],"buffers":[{"uri":"selected.bin","byteLength":564904}],"scenes":[{"nodes":[0,1,2,3,4,5,6,7,8,9,10]}],"scene":0,"extensionsUsed":["EXT_texture_webp"],"extensionsRequired":["EXT_texture_webp"]}