{"asset":{"generator":"Khronos glTF Blender I/O v4.2.57","version":"2.0"},"materials":[{"doubleSided":true,"name":"searsia_lucida","normalTexture":{"index":0},"pbrMetallicRoughness":{"baseColorTexture":{"index":1},"metallicFactor":0,"metallicRoughnessTexture":{"index":2}}},{"alphaMode":"BLEND","doubleSided":true,"name":"searsia_lucida_leaves","normalTexture":{"index":3},"pbrMetallicRoughness":{"baseColorTexture":{"index":4},"metallicFactor":0,"metallicRoughnessTexture":{"index":5}}},{"alphaMode":"BLEND","doubleSided":true,"name":"searsia_lucida_twigs","normalTexture":{"index":6},"pbrMetallicRoughness":{"baseColorTexture":{"index":7},"metallicFactor":0,"metallicRoughnessTexture":{"index":8}}}],"textures":[{"sampler":0,"extensions":{"EXT_texture_webp":{"source":0}}},{"sampler":0,"extensions":{"EXT_texture_webp":{"source":1}}},{"sampler":0,"extensions":{"EXT_texture_webp":{"source":2}}},{"sampler":0,"extensions":{"EXT_texture_webp":{"source":0}}},{"sampler":0,"extensions":{"EXT_texture_webp":{"source":3}}},{"sampler":0,"extensions":{"EXT_texture_webp":{"source":2}}},{"sampler":0,"extensions":{"EXT_texture_webp":{"source":0}}},{"sampler":0,"extensions":{"EXT_texture_webp":{"source":4}}},{"sampler":0,"extensions":{"EXT_texture_webp":{"source":2}}}],"images":[{"mimeType":"image/webp","name":"searsia_lucida_nor_gl","uri":"textures/searsia_lucida_nor_gl_1k.webp"},{"mimeType":"image/webp","name":"searsia_lucida_diff","uri":"textures/searsia_lucida_diff_1k.webp"},{"mimeType":"image/webp","name":"searsia_lucida_rough","uri":"textures/searsia_lucida_arm_1k.webp"},{"mimeType":"image/webp","name":"searsia_lucida_diff-searsia_lucida_alpha","uri":"textures/searsia_lucida_diff_1k.webp"},{"mimeType":"image/webp","name":"searsia_lucida_diff-searsia_lucida_alpha","uri":"textures/searsia_lucida_diff_1k.webp"}],"samplers":[{"magFilter":9729,"minFilter":9987}],"nodes":[{"mesh":0,"name":"searsia_lucida_f_LOD0","translation":[0,0,0]},{"mesh":1,"name":"searsia_lucida_g_LOD0","translation":[0,0,0]}],"meshes":[{"name":"Cube.065","primitives":[{"attributes":{"POSITION":0,"NORMAL":1,"TEXCOORD_0":2},"indices":3,"material":0},{"attributes":{"POSITION":4,"NORMAL":5,"TEXCOORD_0":6},"indices":7,"material":1},{"attributes":{"POSITION":8,"NORMAL":9,"TEXCOORD_0":10},"indices":11,"material":2}]},{"name":"Cube.067","primitives":[{"attributes":{"POSITION":12,"NORMAL":13,"TEXCOORD_0":14},"indices":15,"material":0},{"attributes":{"POSITION":16,"NORMAL":17,"TEXCOORD_0":18},"indices":19,"material":1},{"attributes":{"POSITION":20,"NORMAL":21,"TEXCOORD_0":22},"indices":23,"material":2}]}],"accessors":[{"bufferView":0,"componentType":5126,"count":5234,"max":[0.3003121018409729,0.732806384563446,0.1746131330728531],"min":[-0.32431721687316895,-0.0057983980514109135,-0.24350760877132416],"type":"VEC3"},{"bufferView":1,"componentType":5126,"count":5234,"type":"VEC3"},{"bufferView":2,"componentType":5126,"count":5234,"type":"VEC2"},{"bufferView":3,"componentType":5123,"count":13413,"type":"SCALAR"},{"bufferView":4,"componentType":5126,"count":2752,"max":[0.31302404403686523,0.7248639464378357,0.2097792774438858],"min":[-0.3391704261302948,0.039094701409339905,-0.27342501282691956],"type":"VEC3"},{"bufferView":5,"componentType":5126,"count":2752,"type":"VEC3"},{"bufferView":6,"componentType":5126,"count":2752,"type":"VEC2"},{"bufferView":7,"componentType":5123,"count":6192,"type":"SCALAR"},{"bufferView":8,"componentType":5126,"count":768,"max":[0.31847527623176575,0.5608212351799011,0.11273927986621857],"min":[-0.276913583278656,0.0033714501187205315,-0.15960107743740082],"type":"VEC3"},{"bufferView":9,"componentType":5126,"count":768,"type":"VEC3"},{"bufferView":10,"componentType":5126,"count":768,"type":"VEC2"},{"bufferView":11,"componentType":5123,"count":2091,"type":"SCALAR"},{"bufferView":12,"componentType":5126,"count":4589,"max":[0.15443378686904907,0.7809425592422485,0.14181214570999146],"min":[-0.1866273283958435,-0.0058943782933056355,-0.1548718959093094],"type":"VEC3"},{"bufferView":13,"componentType":5126,"count":4589,"type":"VEC3"},{"bufferView":14,"componentType":5126,"count":4589,"type":"VEC2"},{"bufferView":15,"componentType":5123,"count":11445,"type":"SCALAR"},{"bufferView":16,"componentType":5126,"count":2496,"max":[0.17334148287773132,0.7745890617370605,0.1700487732887268],"min":[-0.20837479829788208,0.04285383224487305,-0.14229075610637665],"type":"VEC3"},{"bufferView":17,"componentType":5126,"count":2496,"type":"VEC3"},{"bufferView":18,"componentType":5126,"count":2496,"type":"VEC2"},{"bufferView":19,"componentType":5123,"count":5616,"type":"SCALAR"},{"bufferView":20,"componentType":5126,"count":676,"max":[0.15273773670196533,0.6207923293113708,0.08722102642059326],"min":[-0.12763944268226624,0.005626701284199953,-0.12229219079017639],"type":"VEC3"},{"bufferView":21,"componentType":5126,"count":676,"type":"VEC3"},{"bufferView":22,"componentType":5126,"count":676,"type":"VEC2"},{"bufferView":23,"componentType":5123,"count":1845,"type":"SCALAR"}],"bufferViews":[{"buffer":0,"byteLength":62808,"byteOffset":0,"target":34962},{"buffer":0,"byteLength":62808,"byteOffset":62808,"target":34962},{"buffer":0,"byteLength":41872,"byteOffset":125616,"target":34962},{"buffer":0,"byteLength":26826,"byteOffset":167488,"target":34963},{"buffer":0,"byteLength":33024,"byteOffset":194316,"target":34962},{"buffer":0,"byteLength":33024,"byteOffset":227340,"target":34962},{"buffer":0,"byteLength":22016,"byteOffset":260364,"target":34962},{"buffer":0,"byteLength":12384,"byteOffset":282380,"target":34963},{"buffer":0,"byteLength":9216,"byteOffset":294764,"target":34962},{"buffer":0,"byteLength":9216,"byteOffset":303980,"target":34962},{"buffer":0,"byteLength":6144,"byteOffset":313196,"target":34962},{"buffer":0,"byteLength":4182,"byteOffset":319340,"target":34963},{"buffer":0,"byteLength":55068,"byteOffset":323524,"target":34962},{"buffer":0,"byteLength":55068,"byteOffset":378592,"target":34962},{"buffer":0,"byteLength":36712,"byteOffset":433660,"target":34962},{"buffer":0,"byteLength":22890,"byteOffset":470372,"target":34963},{"buffer":0,"byteLength":29952,"byteOffset":493264,"target":34962},{"buffer":0,"byteLength":29952,"byteOffset":523216,"target":34962},{"buffer":0,"byteLength":19968,"byteOffset":553168,"target":34962},{"buffer":0,"byteLength":11232,"byteOffset":573136,"target":34963},{"buffer":0,"byteLength":8112,"byteOffset":584368,"target":34962},{"buffer":0,"byteLength":8112,"byteOffset":592480,"target":34962},{"buffer":0,"byteLength":5408,"byteOffset":600592,"target":34962},{"buffer":0,"byteLength":3690,"byteOffset":606000,"target":34963}],"buffers":[{"uri":"selected.bin","byteLength":609690}],"scenes":[{"nodes":[0,1]}],"scene":0,"extensionsUsed":["EXT_texture_webp"],"extensionsRequired":["EXT_texture_webp"]}